PathFileType	4	(X/Y/Z)	c:/Users/goper/Files/vsCode/490R/osim_files/A03/A03_SSWS_03.trc
DataRate	CameraRate	NumFrames	NumMarkers	Units                	OrigDataRate	OrigDataStartFrame	OrigNumFrames
250.00	250.00	9	36	mm	250.0	1732	2771
                Frame#	Time	LPSIS			LASIS			LTH1			LTH2			LTH3			LTH4			LLFE			LMFE			LSH1			LSH2			LSH3			LSH4			LLMAL			LMMAL			LCAL			LMTP5			LTOE			LMTP1			RPSIS			RASIS			RTH1			RTH2			RTH3			RTH4			RLFE			RMFE			RSH1			RSH2			RSH3			RSH4			RLMAL			RMMAL			RCAL			RMTP1			RTOE			RMTP5		
		X1	Y1	Z1	X2	Y2	Z2	X3	Y3	Z3	X4	Y4	Z4	X5	Y5	Z5	X6	Y6	Z6	X7	Y7	Z7	X8	Y8	Z8	X9	Y9	Z9	X10	Y10	Z10	X11	Y11	Z11	X12	Y12	Z12	X13	Y13	Z13	X14	Y14	Z14	X15	Y15	Z15	X16	Y16	Z16	X17	Y17	Z17	X18	Y18	Z18	X19	Y19	Z19	X20	Y20	Z20	X21	Y21	Z21	X22	Y22	Z22	X23	Y23	Z23	X24	Y24	Z24	X25	Y25	Z25	X26	Y26	Z26	X27	Y27	Z27	X28	Y28	Z28	X29	Y29	Z29	X30	Y30	Z30	X31	Y31	Z31	X32	Y32	Z32	X33	Y33	Z33	X34	Y34	Z34	X35	Y35	Z35	X36	Y36	Z36

1732	6.92400	-2497.74243	1070.49451	261.31271	-2740.59717	1004.64337	374.71152	-2842.63940	678.80103	441.06409	-2865.80908	643.05908	438.60718	-2895.98975	703.23004	416.33640	-2909.15552	661.60742	416.80121	0.00000	0.00000	0.00000	-2887.40161	583.61548	274.90051	-2804.07446	509.87747	421.87857	-2792.26904	463.48636	415.96680	-2861.93213	486.80847	414.76385	-2838.61182	445.08194	405.07962	-2695.94507	157.50853	353.95889	-2707.02783	167.66818	255.40746	-2622.98975	167.03860	302.58405	-2821.08545	55.38342	353.20471	-2856.66895	83.50417	287.07520	-2820.00635	74.85335	241.71088	-2494.07422	1080.97278	177.38258	-2734.37817	988.10687	79.09138	-2652.03760	621.78839	48.27544	-2657.51074	578.32001	57.00488	-2713.18799	624.51825	53.48594	-2712.43945	581.18225	62.33767	-2678.09082	543.13904	73.43867	-2716.55933	549.57819	193.13718	-2619.90454	479.39456	75.26524	-2612.42871	438.61902	64.21793	-2680.00781	465.34070	68.64992	-2665.04175	421.68729	60.30010	-2587.92114	126.36491	113.37132	-2632.06714	117.34552	199.90843	-2536.54663	87.99036	173.43268	-2750.79761	53.01504	196.44298	-2775.74536	78.38740	145.31860	-2739.19336	47.17089	78.37820
1733	6.92800	-2501.74072	1070.76697	261.57608	-2744.63745	1004.77380	374.49414	-2847.23560	679.33881	439.65027	-2870.67285	643.76465	437.08173	-2899.82886	703.91431	414.51419	-2913.85742	662.62036	415.30972	0.00000	0.00000	0.00000	-2891.98267	584.55737	273.50583	-2810.62402	508.94098	420.59976	-2800.31348	462.23892	414.87866	-2868.29785	487.08765	413.12463	-2846.95898	445.02423	404.06870	-2712.33911	153.37764	353.66812	-2723.27295	163.04417	255.80231	-2639.06128	160.93994	302.12134	-2840.44678	54.85862	353.31509	-2875.29028	83.77101	287.11047	-2839.19019	74.45167	241.93149	-2498.66187	1081.03223	177.83733	-2737.87402	987.90869	78.95681	-2653.81934	621.98450	48.26833	-2659.04907	578.35364	57.13059	-2714.92627	624.23907	53.64153	-2713.99243	580.95752	62.48915	-2679.44556	543.03961	73.56335	-2717.88745	549.35394	193.29659	-2621.01318	479.45541	75.45735	-2613.33887	438.69931	64.38161	-2680.99341	465.21155	68.77112	-2665.96704	421.72824	60.45384	-2587.91504	126.43677	113.39293	-2632.08740	117.30892	200.00732	-2536.55591	87.75271	173.97874	-2750.80103	52.95312	196.44173	-2775.65381	78.46417	145.23232	-2739.19995	47.17582	78.39573
1734	6.93200	-2505.43140	1071.32886	261.71002	-2748.62769	1004.84692	374.31064	-2851.67847	679.79138	438.26611	-2875.35181	644.35431	435.58377	-2904.24243	704.92810	413.35910	-2918.29443	663.49213	413.80688	0.00000	0.00000	0.00000	-2896.53516	585.32123	272.09131	-2817.67700	507.93335	419.24466	-2808.35010	460.98294	413.90021	-2875.25244	487.61334	412.01740	-2855.75732	445.33224	403.39880	-2729.10376	149.64262	353.39618	-2739.81812	159.17123	255.56107	-2655.72266	154.91742	301.70181	-2859.75586	54.64133	353.54016	-2893.92651	84.30042	287.35254	-2859.48657	74.90993	242.11671	-2501.93311	1081.70471	177.77684	-2741.37134	987.68628	78.84510	-2655.63403	622.02747	48.39177	-2660.60571	578.35156	57.27360	-2716.71313	623.99878	53.77975	-2715.58667	580.70496	62.62454	-2680.83203	542.94836	73.69896	-2719.28540	549.10571	193.43277	-2622.08130	479.52704	75.59029	-2615.59351	438.82355	64.21461	-2682.05493	465.08344	68.91588	-2666.98633	421.69116	60.61886	-2587.98096	126.50038	113.42854	-2632.69580	117.16529	200.02393	-2536.53174	87.99547	173.48015	-2751.48633	53.20401	195.78300	-2776.15356	78.43617	145.21785	-2739.18652	47.15358	78.40903
1735	6.93600	-2509.70020	1071.48645	261.98932	-2752.69238	1004.85254	374.12555	-2855.98389	680.07849	436.84689	-2879.89844	644.76239	434.09415	-2908.44458	705.66010	412.11487	-2923.44922	664.56079	412.89474	0.00000	0.00000	0.00000	-2901.03589	585.95331	270.74979	-2823.50122	506.89603	418.08057	-2816.30420	459.74228	412.92740	-2882.27344	488.20456	410.97394	-2863.89307	445.34232	402.43484	-2745.70557	146.02496	353.19162	-2756.29150	155.45161	255.35098	-2672.48218	149.10814	301.35730	-2878.74390	54.79457	353.93845	-2912.45679	85.09106	287.76181	-2878.39014	74.53551	242.48285	-2505.81763	1081.99353	178.00241	-2744.90527	987.41547	78.76141	-2657.42773	621.98071	48.51756	-2662.23926	578.34479	57.37182	-2718.53540	623.70355	53.86465	-2717.18872	580.45782	62.74129	-2682.21533	542.66693	73.96497	-2719.40405	548.12830	193.90202	-2623.04321	479.63504	75.76208	-2616.53345	438.70538	64.60364	-2683.17578	464.96078	69.02863	-2667.95557	421.65515	60.73389	-2587.99438	126.54996	113.45892	-2632.79004	117.02560	200.15404	-2536.41650	87.82322	174.08975	-2750.50122	52.88497	196.63867	-2776.15405	78.43019	145.20108	-2739.16187	47.11749	78.37502
1736	6.94000	-2513.67749	1071.71021	262.29257	-2756.72632	1004.79950	374.00519	-2860.20190	680.88458	434.60345	-2884.25317	645.10651	432.59070	-2912.46875	706.25122	410.89075	-2927.16089	665.05566	411.12790	0.00000	0.00000	0.00000	-2905.58130	586.44324	269.41763	-2829.73022	505.84421	416.76715	-2824.13232	458.50851	411.89893	-2889.09448	488.63156	409.82019	-2871.86255	445.29782	401.47665	-2762.32544	142.66237	352.97089	-2771.93408	150.82726	256.98682	-2688.91211	143.66154	300.81808	-2898.09204	55.14866	354.57010	-2930.93384	86.14496	288.34885	-2896.49536	73.89906	242.78780	-2509.66187	1082.34631	178.20653	-2748.44116	987.12738	78.67464	-2659.23486	622.03931	48.57225	-2663.88916	578.30676	57.45253	-2720.37939	623.42249	53.94047	-2718.84766	580.15436	62.84872	-2683.67944	542.52509	74.12804	-2721.66895	548.24780	193.77855	-2624.11011	479.70435	75.91557	-2617.59888	438.99512	64.51848	-2684.25684	464.78363	69.14029	-2668.95972	421.63281	60.84403	-2588.08130	126.62923	113.49773	-2632.82837	117.03537	200.15790	-2536.50439	87.77457	174.12697	-2751.26367	53.01957	196.02626	-2775.52197	78.15596	145.35327	-2739.18921	47.14270	78.35941
1737	6.94400	-2517.69043	1071.96509	262.57635	-2760.74219	1004.67908	373.88947	-2864.14355	680.24445	434.13779	-2888.48364	645.27173	431.14481	-2916.46533	706.72858	409.71051	-2931.82983	665.70361	410.23053	0.00000	0.00000	0.00000	-2911.12720	587.33691	268.22449	-2836.44849	504.68924	415.33881	-2831.81885	457.29105	410.84113	-2897.34424	489.83029	409.72217	-2879.37012	445.15891	400.27106	-2778.86694	139.52983	352.75790	-2788.66187	147.56410	256.85052	-2705.96631	138.25237	300.45581	-2917.06641	55.89139	355.32556	-2949.35400	87.47607	289.12860	-2915.15210	73.76721	243.61900	-2513.66333	1082.60413	178.47690	-2751.98096	986.81995	78.59944	-2661.10034	622.01331	48.67611	-2665.54297	578.27167	57.57647	-2722.20190	623.08484	54.02181	-2720.52563	579.86578	62.93409	-2685.15527	542.39948	74.19642	-2723.66016	548.13379	193.73705	-2625.23218	479.78464	75.98871	-2618.53003	438.89551	64.88349	-2685.41968	464.64044	69.18092	-2670.10181	421.56226	60.95700	-2588.17505	126.66771	113.53816	-2632.91650	117.04641	200.19620	-2536.52490	87.82040	174.13191	-2750.65479	53.00318	196.43059	-2776.14673	78.38538	145.17595	-2739.15112	47.10722	78.32423
1738	6.94800	-2521.66162	1072.23682	262.84747	-2764.72876	1004.48248	373.82672	-2867.95850	680.12561	432.85181	-2892.47290	645.25128	429.77390	-2920.45190	706.96277	408.97476	-2935.23560	665.92761	408.52429	0.00000	0.00000	0.00000	-2914.49170	586.99390	266.85156	-2841.89917	503.50113	414.07916	-2839.37061	456.08359	409.73541	-2903.69775	490.22989	408.62152	-2887.09033	445.13245	399.33871	-2795.39453	136.62033	352.64825	-2805.48901	144.61845	256.73566	-2723.14404	133.24405	299.44724	-2935.78003	56.82851	356.21387	-2967.60425	89.07071	290.08420	-2934.18994	74.54512	244.25697	-2517.60107	1082.87366	178.76686	-2755.54053	986.48090	78.52199	-2662.95312	621.95972	48.78265	-2667.21362	578.21643	57.63834	-2724.07104	622.75720	54.06450	-2722.21680	579.57941	62.95810	-2686.66943	542.23846	74.26070	-2725.31885	547.81921	193.75232	-2626.37646	479.82104	76.11934	-2619.72046	439.18182	64.79569	-2686.59692	464.43613	69.24519	-2671.11450	421.52835	61.04089	-2588.20898	126.74538	113.55526	-2632.99536	117.04482	200.18231	-2536.50977	87.83949	174.11183	-2750.67651	53.01606	196.42006	-2776.12720	78.39600	145.16492	-2739.13892	47.09948	78.28695
1739	6.95200	-2525.30200	1072.54688	263.04892	-2768.79419	1004.27417	373.79044	-2871.61987	679.86194	431.56104	-2896.35913	645.16272	428.41171	-2924.03516	707.05109	407.93469	-2938.99609	666.12250	407.30862	0.00000	0.00000	0.00000	-2918.97021	587.11591	265.58084	-2847.88428	502.27786	412.73062	-2846.78711	454.81668	408.62820	-2909.24243	490.25317	407.18054	-2894.75122	445.18057	398.48935	-2811.83691	134.00923	352.50064	-2822.73682	142.42072	255.87259	-2741.01367	128.25577	299.19040	-2954.35571	58.07597	357.22812	-2985.63965	90.90112	291.13486	-2954.25439	76.03412	245.51817	-2521.74854	1082.88025	179.35027	0.00000	0.00000	0.00000	-2664.87329	621.88922	48.83919	-2668.90674	578.13055	57.72038	-2726.02002	622.42365	54.07786	-2723.90234	579.23071	62.97712	-2688.20020	542.05939	74.30798	-2727.06177	547.45618	193.75526	-2627.60840	479.83340	76.23035	-2620.82495	439.27005	64.90400	-2687.79370	464.25925	69.28300	-2672.20508	421.45734	61.10750	-2588.25806	126.80931	113.57960	-2631.25024	117.83048	199.39832	-2536.48145	87.83818	174.12444	-2750.65649	53.00477	196.38054	-2776.10449	78.35937	145.17239	-2739.13940	47.08768	78.30355
1740	6.95600	-2529.30688	1072.68921	263.30640	-2772.75928	1003.94171	373.75128	-2875.07568	679.42993	430.39841	-2900.06567	644.88220	427.19647	-2927.52393	707.02319	406.95108	-2943.16821	666.25757	406.67233	0.00000	0.00000	0.00000	-2923.42725	587.12799	264.34259	-2853.77686	500.98044	411.36514	-2854.17529	453.60938	407.54199	-2916.21704	490.70102	406.96329	-2902.16016	445.14059	397.56577	-2828.22144	131.62990	352.38379	-2839.04004	139.44778	256.59796	-2757.86426	123.85965	298.55661	-2972.72168	59.67290	358.40503	-3003.60620	93.06125	292.33740	-2972.07471	76.31450	245.20363	-2525.49048	1083.34265	179.29626	-2762.79688	985.78491	78.33611	-2666.75586	621.80780	48.93084	-2670.64355	578.00659	57.78365	-2727.92310	622.06586	54.09144	-2725.62793	578.89185	62.96302	-2689.76685	541.82916	74.33932	-2728.78760	547.06012	193.76202	-2628.87964	479.85764	76.30526	-2621.91870	439.32050	64.99935	-2689.05249	464.05170	69.28879	-2673.37061	421.34991	61.16154	-2588.32544	126.85912	113.57299	-2631.34131	117.84055	199.38058	-2536.46948	87.86468	174.13409	-2750.66748	52.99107	196.34654	-2776.07593	78.34666	145.14211	-2739.09717	47.04659	78.28091
